<?xml version="1.0" encoding="UTF-8"?>
<svg xmlns="http://www.w3.org/2000/svg" viewBox="0 0 300 300">
<circle fill="#b3b3b3" fill-opacity="0.7" cx="150" cy="150" r="145"/>
<path fill="#ffffff" d="M182.4122 116.4076c6.4018-6.493 14.7811-10.6971 24.3985-16.4253l-1.598-7.256c-4.4002 3.4297-18.3902 14.514-34.4153 14.514-2.3989 0-5.5928-.765-7.9917-1.1465 8.3932 3.4335 12.4098 6.8746 19.6065 10.3138m-35.2024 5.3485v1.1445c0 9.9246-6.0042 9.9246-8.8046 15.2731 1.2024 3.0558 6.0042 4.5837 6.0042 11.4563 9.5976-1.1105 18.3963-1.524 26.0103-1.524 14.8028 0 26.392 1.9093 33.994 4.6176 5.1974 1.1105 9.1963 6.1077 9.1963 11.8095 0 1.5203-.4055 3.0803-.8148 4.9613 0 12.2627-3.985 23.3319-5.2033 51.5911 5.6126 9.5431 10.804 10.3118 19.6145 16.0343 3.6013 1.915 5.5968 4.206 7.9997 4.206-.4173 1.1425-2.4029 2.2927-4.7939 2.2927-1.2242 0-2.8023-.3796-4.4102-1.1502-3.2097.7706-5.5928 1.1502-6.8091 1.1502-3.5974 0-2.3791-2.2928-9.5818-2.2928-2.397 0-5.5948.3853-10.4124.763-.3777 0-1.602.3796-2.0054.3796-3.981 0-10.3708-1.524-10.3708-6.8726 0-1.5241 1.2004-4.1984 2.3731-6.4874 1.2163-3.0576 1.6079-6.8764 1.6079-9.9378 0-11.8303-6.4017-24.8163-6.4017-35.8987 0-4.9614 1.6138-10.3099 5.217-14.1268-17.611 8.3722-23.6034 8.7783-37.2078 9.9303 8.0096 12.2193 13.6044 27.111 15.594 44.6845v3.4335c0 7.2598-4.3964 14.5177-11.607 14.5177-7.9917 0-28.7928-2.2909-56.0055-5.7244-4.782 0-19.9883 3.815-28.3895 3.815-1.1866 0-2.383-.3815-3.184-.3815C67.6008 242.8536 65.2236 244 64.0073 244h-.791c-.801-.3815-1.2163-1.5317-1.2163-2.289 0-.7668.4153-2.6761 1.2163-3.4448.4054-13.36 14.3875-8.3987 17.1879-15.2694l4.8057-5.3504c1.6078-.763 3.192-1.1426 4.4082-1.1426 5.9924 0 8.7927 9.9303 11.1936 9.9303l.799-.3834c9.2001-1.1445 19.1972-6.493 31.1977-6.493 3.1979 0 6.7992.3833 10.4025 1.1444-11.6069-8.7839-32.4-23.2903-35.2005-39.334-9.5996-4.9633-13.2128-11.4979-13.2128-17.6075 0-10.3061 8.8145-22.9126 10.4125-35.1319v-5.341c0-7.645-1.598-15.666-1.598-22.9144 0-9.1787 3.194-19.1033 13.996-27.5-.3975-3.4468-1.1965-6.121-1.1965-7.6508 0-6.1078 3.9968-3.8112 4.7978-8.782 0-.3777-.4015-.7592-.4015-1.1426C120.808 38.491 133.2 32 144.4094 32h3.9969C160.4206 33.5298 165.6 41.1654 165.6 47.2845c0 2.6686-.793 5.3391-2.385 7.2541-.795.7593-1.6119 2.2871-1.6119 3.0483 0 1.9075 2.0054 4.2021 2.395 5.7338.4034.7573.8089 2.289.8089 3.0576 0 .374-1.1985 1.5185-2.387 1.5185-.4134 0-.8169-.372-1.2183-.372l-.7812 1.1444v.7573s0 .7725-.4153.7725c-.3837 0-1.2024.372-1.602.372l-.3955-.372c0 .7592.3956.372 1.2025 1.1445-.4074 0-1.2025 2.6742-2.389 2.6742l-.4233-.3871c-1.1905 3.8244-2.7925 5.7243-5.5928 5.7243-1.604 0-4.3964-1.1463-7.5943-1.8999l-4.0067 6.4893c13.2068.7573 25.1974 6.1115 36.395 10.697 12.8014-5.7319 17.1958-7.2598 26.8132-8.4118 0 0-1.6-6.8746-1.6-12.2118 0-3.0595.809-6.121 1.9876-7.2654 3.5954-5.7206 13.2128-10.3118 23.202-12.9861 2.393 0 5.6008.3853 6.4077 1.915l40.3918 62.2826-1.584 4.1719-4.8098 1.5279L274 159.9418l-4.782.7933-5.6166-18.737 8.0036 52.732-5.6007 1.5297-8.8006-52.3636 1.9974 32.8543-3.9968.7667-4.4023-37.4265-1.602.7573 4.4083 59.6158-6.0022-.3853-5.1974-64.1937-1.6038-.3853v53.882l-7.1968.3569-1.1984-46.981c-.4154 0-1.602.4155-1.9975.4155-10.4005 0-16.3988-10.3477-17.2077-17.6018l-4.8097-19.0957c-4.3785 7.6375-10.3768 16.4252-23.993 21.77-1.1866 0-2.7885.3833-3.987.3833-9.9951 0-21.2045-4.9651-25.2073-10.665-1.602 2.2607-4.4023 3.7924-7.9977 3.7924"/>
</svg>