<?xml version="1.0" encoding="UTF-8"?>
<svg xmlns="http://www.w3.org/2000/svg" viewBox="0 0 300 300">
<circle fill="#f04231" fill-opacity="0.7" cx="150" cy="150" r="145"/>
<path fill="#ffffff" d="M57.206 152.365c11.596-18.089 26.284-21.95 42.887-21.95 10.833 0 23.593 1.93 36.345 1.93 6.957 0 15.07-1.152 22.03-2.31 10.45-16.966 21.645-33.524 26.296-37.37.374-.78.374-1.54.374-2.319 0-2.277.101-3.335-1.16-7.669-6.01-12.228-15.06-15.43-22.418-15.43-3.869 0-8.117 1.542-11.595 5.392-5.026 7.318-6.184 19.247-6.184 26.95 0 3.084.39 5.805.39 6.965l-3.097.35c-7.343-8.087-10.435-16.17-10.435-23.098C131.755 62.12 150.023 48.32 169.691 48c11.597 0 22.79 5.773 30.148 18.095l4.625 7.702 3.103-7.702c8.71-12.644 13.893-15.014 26.683-15.014 13.494 3.852 16.218 10.39 17.75 26.175h-3.848c-3.467-7.667-8.521-12.703-13.902-12.703-2.703 0-6.184 1.542-9.656 4.621-3.11 3.885-4.287 8.082-4.287 11.163 0 6.933 5.41 11.549 5.41 11.549l17.427 19.285-3.513 8.046c-1.543 2.35-8.084 5.428-13.914 5.428-3.478 0-7.311-1.543-9.26-3.848-14.298 9.618-3.48 39.654-21.66 56.97l15.846 75.851h-8.484L183.11 204.87l1.447 49.082-9.085.049-18.164-65.838c-10.435 5.78-20.099 8.093-27.052 8.093-5.027 0-9.277-1.158-12.371-2.69-3.474-.777-7.34-1.93-10.046-1.93-3.094 0-5.797 2.69-5.797 10.783 0 1.535.385 3.46.385 5.391L103.2 254h-7.34l-11.615-51.582-5.41 3.072V254h-9.663c-4.248-14.63-6.182-26.945-12.365-38.115-2.727-3.849-4.256-6.539-4.256-8.47 0-4.997 7.73-6.544 8.517-15.01 1.186-5.551.72-11.56-1.558-16.167-.774-1.542-3.85-3.083-5.78-3.083-1.179 0-2.709.765-3.48 1.923-1.545-3.854-2.701-3.854-4.25-6.15 2.705-7.709 7.73-11.176 11.205-16.562"/>
</svg>