<?xml version="1.0" encoding="UTF-8"?>
<svg xmlns="http://www.w3.org/2000/svg" viewBox="0 0 300 300">
<circle fill="#32b2df" fill-opacity="0.7" cx="150" cy="150" r="145"/>
<path fill="#ffffff" d="M76.557 97.861c.097 6.29-8.42 35.906-12.333 43.725 7.323 2.163 15.023 5.03 20.52 9.283 2.37 1.835 18.46-4.235 20.596-5.97.851-2.177-3.994-21.652-4.768-27.299-2.615-15.426-21.481-32.545-25.613-35.548m36.153 88.54s-2.872-8.944-4.582-9.821c-10.882 5.256-20.985 8.364-28.69 8.364-30.372 0-53.783-19.486-53.84-46.651-.04-18.85 18.55-48.968 46.166-61.072-4.725 12.114-14.788 37.833-16.87 58.537 6.998-8.477 18.196-24.992 19.02-39.933 7.694 0 28.588 18.565 34.574 18.565 1.047-12.811-4.272-24.969-9.057-32.952 10.251 5.8 18.937 22.769 19.284 25.581 4.891 7.008 12.083 6.81 16.7 9.545 1.114.66 13.89-.287 14.74-.287 3.272-4.93 4.573-8.695 8.315-14.657 2.161-7.563.711-13.331 1.486-24.072-10.54 2.372-38.412 7.932-54.912-4.959 24.02 1.563 40.767-9.434 40.767-9.434-13.988-7.402-53.728 2.178-61.426 2.178C95.553 34.112 117.61 19.982 135.045 20c24.462.025 42.876 10.47 42.876 37.873 0 5.214-.056 17.897-1.77 23.544-5.538 13.785-9.848 17.498-12.85 22.716 11.73 3.345 15.557 9.366 17.926 8.872 8.934-6.652 8.315-14.18 11.445-35.212l5.072 9.195c-1.347 14.851-.434 21.66-9.776 33.746 2.362 2.541 4.177 3.468 6.548 7.394 8.756-6.25 11.832-14.78 16.75-32.585l3.35 10.933c-1.71 7.827-2.683 18.68-12.957 30.427l4.882 11.216c13.31-6.398 15.913-21.64 17.243-30.651l4.615 8.852c-1.167 15.55-6.065 27.323-18.217 34.307 4.14 4.339 6.2 6.55 6.353 13.04 6.74 2.847 5.51 10.756 5.51 10.756 5.113.244 7.186 5.032 8.419 8.54 11.444-4.819 14.396-7.122 21.393-6.944 4.592 10.368 2.825 17.301-5.559 22.597 5.56 1.316 13.702 6.536 13.702 11.3 0 2.193-2.933 4.838-8.917 7.443-2.61 9.95-8.981 16.304-16.764 16.91-2.554 8.689-6.399 11.731-9.005 11.731-4.24 0-7.383-7.91-8.682-15.296-3.97 6.447-12.657 10.067-19.556 7.915 0-3.476 3.3-19.211 3.3-27.05-5.225-.348-10.92-1.983-13.213-9.293-5.832 1.129-11.127-1.011-14.018-7.135-3.517 3.492-13.07.566-14.548-1.788-10.892 11.909-23.278 18.418-38.248 22.108l-15.784-2.27c17.121-6.03 31.936-12.069 38.212-21.67-3.284-1.62-8.644-4.323-9.07-7.346-13.058 8.414-18.514 12.151-35.234 14.749l-15.186-3.611c8.124-1.735 44.289-13.86 40.928-18.375-6.24-8.383-6.586-6.785-7.016-7.211-14.568 8.448-23.032 11.653-38.56 14.448l-13.96-5.599c14.097-1.825 26.402-6.773 36.723-11.102"/>
</svg>