<?xml version="1.0" encoding="UTF-8"?>
<svg xmlns="http://www.w3.org/2000/svg" viewBox="0 0 300 300">
<circle fill="#93cc27" fill-opacity="0.7" cx="150" cy="150" r="145"/>
<path fill="#ffffff" d="M183.311 75.889c2.326-2.032 3.107-4.078 3.107-5.298 0-2.038-2.707-4.081-5.838-5.303-3.499-1.236-7.885-3.55-13.342-3.55-16.765 0-40.878 10.073-52.178 33.706l-4.316-2.438C117.386 72.623 146.267 40 182.125 40c10.536 0 23.062 4.79 32.457 12.416L250 65.288l-2.337 13.859c-1.95 3.265-8.968 8.153-18.715 8.153-2.345 0-5.856-.821-8.598-1.225-5.057 2.447-7.007 11.003-7.007 20.788 0 9.778 1.563 22.408 1.563 33.41 0 14.68-2.342 28.126-13.65 32.611L219.04 254h-8.178l-19.306-52.556 5.791 52.43-7.793.126-29.245-71.34c-4.293 1.626-9.755 2.86-14.445 2.86-15.997 0-31.99-8.56-31.99-8.56-2.725 12.223-7.01 17.923-7.01 25.263l2.733 51.657-6.374.12-15.868-60.339-11.682 11.086 5.913 49.245h-7.131c-4.289-15.495-9.322-24.857-14.414-35.466-3.506-9.375-7.012-18.75-7.012-24.865 0-1.214.777-2.848.777-3.67 2.73-4.883 5.084-2.03 7.403-6.111 2.34-2.032 3.514-6.112 3.514-9.774 0-2.451-.389-6.114-1.173-8.157-1.142-2.036-3.114-12.63-7.39-12.63-1.575 0-3.917 1.222-6.254 4.886-1.562-4.07-2.343-6.114-3.906-8.557.782-3.256 5.068-7.744 6.648-8.962 14.028-13.047 12.485-14.681 19.503-19.964 8.17-5.709 15.985-7.749 23.773-7.749 14.444 0 30.026 6.516 48.387 6.516 4.652 0 10.114-.812 15.211-1.62 8.158-9.782 15.215-32.612 23.789-41.98"/>
</svg>