<?xml version="1.0" encoding="UTF-8"?>
<svg xmlns="http://www.w3.org/2000/svg" viewBox="0 0 300 300">
<circle fill="#f04231" fill-opacity="0.7" cx="150" cy="150" r="145"/>
<path fill="#ffffff" d="M197.36 223.2081c0 1.5714.78 3.9793 1.575 5.5809 14.9485 0 21.2566 6.4156 21.2566 13.2051 0 1.985-.7876 4.3967-1.5563 6.4062-1.5789 1.5996-3.186 2.7932-5.1238 2.7932-1.6167 0-3.9586-.3985-8.684-.3985-3.137 0-7.4675 0-13.3978.3985h-7.5035c-2.7555 0-5.1182-.3985-5.1182-1.5958-5.8944-5.9983-7.0748-14.3931-7.0748-21.1997v-3.203c0-3.6054 0-7.2032-1.203-8.8028-5.8925.7932-15.7436 3.6185-24.0328 3.6185-5.5204 0-11.411-1.2295-15.7587-4.4269-.3947 4.0058-2.746 10.4063-12.2137 13.2052-1.186 1.2125-5.1238 1.594-7.0955 2.814 4.3344 1.1993 9.0654 2.0039 13.396 2.0039 7.885 0 16.5651-1.222 22.4614-1.222 7.8812 0 13.8058 2 13.8058 11.2146.3796.795.3796 2.3966.3796 2.7913 0 4.4043-7.0955 5.6092-16.1571 5.6092-12.9843 0-31.5193-2.4023-42.1523-2.4023h-8.2835c-6.6914 0-8.665 1.9981-16.9353 1.9981-2.3626 0-5.5204 0-9.0616-.4022-2.3645-.3985-4.731-1.9944-4.731-4.8028 0-1.1898 1.1804-3.5864 1.9717-5.6016-1.575-17.581-13.7907-14.3912-14.601-24.7993l-.372-.797c0-5.2107 6.699-11.207 6.699-15.6037v-1.9962C50.7555 187.5928 48 175.1922 48 162.7935c0-29.9987 16.1515-62.3902 23.638-73.1892-3.152-7.1975-5.12-13.1957-5.12-18.0003 0-14.7954 13.396-20.0117 13.785-31.1998 7.4865 10.7915 10.244 20.4101 10.244 27.5812 0 12.4232-8.2685 19.6207-11.0259 22.4253-15.7605 19.194-23.638 48.7865-23.638 70.7926 0 14.393 3.5355 26.3895 9.4488 29.9986 2.3702-4.0133 3.154-8.0096 5.1257-14.8105 9.0635-24.7955 34.6714-9.188 61.0838-41.1867-4.7404-5.5997-7.496-12.0021-7.496-17.598 0-23.2016 33.8801-46.4182 50.0335-52.3976C181.5824 41.596 199.7038 40 205.5982 40h1.9849c15.364 0 31.5174 8.004 33.899 28.8088 3.9245 2.3797 13.7963 6.4024 18.5179 9.2032v4.7933c0 8.8047-2.3627 12.799-8.2722 15.1995.0962 11.7203-.7802 12.4475-11.4205 13.9908-.6725 9.8753-.9285 19.7964-.7951 29.6058 0 3.9982-3.9473 7.9907-6.3042 9.5922.3815 4.0058.3815 8.4062.3815 11.5999 0 25.9985-14.9541 38.3973-24.809 38.3973-.78 0-1.985-.4042-2.7668-.4042-3.9605 7.9983-8.6537 16.0173-8.6537 22.4216"/>
</svg>