<?xml version="1.0" encoding="UTF-8"?>
<svg xmlns="http://www.w3.org/2000/svg" viewBox="0 0 300 300">
<circle fill="#b3b3b3" fill-opacity="0.7" cx="150" cy="150" r="145"/>
<path fill="#ffffff" d="M217.072 206.528h33.245l-31.274-100.454h-1.97zm-7.122-100.454l-34.81 100.454h36.391V106.074zM88.495 206.528h36.381L90.061 106.074h-1.566zM80.97 106.074L49.698 206.528h33.266V106.074zM155.757 41l21.757 17.906c4.345 3.25 5.922 6.92 5.922 8.945 0 2.445-1.968 4.476-4.345 5.702l79.518 2.84v8.538L221.814 89v8.538L255.84 204.9H259v16.674L213.898 259h-7.114l-39.956-38.645v-15.864h3.15L207.97 97.948V90.22l-34.819 3.657-1.18 4.072-7.918-1.225-7.91 17.9h-12.275l-7.9-17.9-7.91 1.225-1.204-4.072-34.792-3.657v7.73l37.98 106.542h3.147v15.864L93.21 259h-7.119L41 221.575v-16.674h3.17L78.191 97.539V89l-36.783-4.07v-8.537l79.533-2.841c-2.39-1.226-4.748-3.257-4.748-5.702 0-2.026 1.978-5.694 6.325-8.945L144.28 41z"/>
</svg>