<?xml version="1.0" encoding="UTF-8"?>
<svg xmlns="http://www.w3.org/2000/svg" viewBox="0 0 300 300">
<circle fill="#32b2df" fill-opacity="0.7" cx="150" cy="150" r="145"/>
<path fill="#ffffff" d="M84.73 201.808c18.537 0 52.617-17.074 69.038-27.896 0 .83-.384 2.078-.384 2.916 0 9.985 4.616 9.985 4.616 9.985 35.797-13.733 58.111-42.456 60.64-54.114 0-1.247.395-2.91.395-4.162 0-10.82-7.577-26.678-11.363-34.161-.84 15.844-12.188 28.294-25.239 28.294-.88 0-2.115-.385-3.39-.385 1.682-4.159 4.224-9.156 4.224-12.927 0-2.886-1.283-6.212-5.507-7.92-2.499-1.208-6.294-2.042-9.68-2.042-22.707 0-59.361 29.14-86.71 60.777 0 3.75 2.51 14.57 2.51 27.479 0 4.156 0 9.16-.833 13.729.415 0 1.255.427 1.684.427m53.899-159.06C155.887 39.834 172.308 39 184.518 39c15.575 0 26.098 1.247 26.098 1.247 7.577 2.5 25.698 5.831 25.698 12.907v5.438l-7.158 5.388 10.522 10.406-5.463 8.775c-.849 0-2.547-.455-2.946-.455-5.487 0-3.797 8.333-12.63 10.033 1.677 6.204 16.819 30.807 43.361 31.222l-1.684 6.649h-2.942c-8.445 0-24.008 5.003-34.105 46.218-21.491 60.358-47.17 60.78-82.981 69.102-1.22 12.073-11.754 17.07-18.092 17.07-1.26 0-2.947-.421-3.789-.84-.846-12.488-8.846-15.779-18.923-15.779-8.862 0-20.237 2.465-32.018 3.712l-1.68-6.244 5.042-7.082-11.364-6.657-.842-4.584c5.9-11.651 13.475-17.474 18.52-20.39-3.367-17.07-28.199-32.888-39.142-39.966 11.356-8.325 24.409-14.57 31.569-14.57 9.678-45.375 38.745-82.867 68.222-94.946z"/>
</svg>