<?xml version="1.0" encoding="UTF-8"?>
<svg xmlns="http://www.w3.org/2000/svg" viewBox="0 0 300 300">
<circle fill="#f04231" fill-opacity="0.7" cx="150" cy="150" r="145"/>
<path fill="#ffffff" d="M179.991 96.632c3.724-.42 10.415-.772 16.705-.772 8.542 0 18.597.353 22.293.772 0 0 4.84-4.285 11.14-4.285.739 0 2.231.389 3.334.389-1.85-17.028-7.067-35.196-15.218-44.1l-46.79 44.513c1.123.357 7.067 3.483 8.536 3.483m-18.933 11.96l-.745.418s.745.39.745 1.158l-.36.392c0 .745 3.35 2.707 3.35 2.707h-.397l56.086 47.568c7.794-11.989 12.623-30.94 14.117-47.955-5.94-.81-8.183-1.93-10.784-3.87-6.682 1.55-22.26 4.257-35.653 4.257-6.297 0-12.624-.778-17.047-2.317-1.873 0-4.857-.39-9.312-2.357m90.97-7.324l-.347-3.86L268 103.983l-16.7 4.609.728-3.066h-6.295c-.37.78-.37 2.712-1.85 3.483-.745 3.479-2.607 3.87-5.2 4.257-1.492 18.557-6.323 38.295-14.854 51.446l-1.497 8.115-4.824-1.156 1.127-7.347-60.914-51.836c-1.848 0-2.6 1.169-4.082 1.169-.364 0-1.494-.778-2.213-.778-3.736 12.757-9.672 19.34-17.102 27.46 1.135 1.541 2.601 2.329 2.601 5.416v1.158c7.815-.768 15.22-1.157 21.908-1.157 14.104 0 26.76 1.928 33.781 4.256 4.082 1.162 7.066 5.81 7.066 11.213 0 2.323-.743 5.026-1.855 7.74-5.547 27.462-9.28 27.462-16.351 52.22 2.991 10.444 17.82 13.53 24.893 19.335 2.214 0 2.599.77 2.599.77l-.385.783h.385c-.385.802-2.954 1.926-5.194 1.926-1.486 0-3.348-.391-4.835-1.124-2.98.733-5.579 1.124-7.044 1.124-4.83 0-5.562-2.708-14.11-2.708-2.606 0-5.941.389-10.416.782-2.934 0-4.806-2.33-4.806-5.808 0-2.317 1.09-6.187 2.208-9.67 3.344-6.189 4.474-12.765 4.474-18.952 0-5.414-.746-11.607-.746-17.018 0-7.349 1.482-15.092 7.817-21.275-17.481 7.734-30.479 11.993-36.048 11.993l-.742-.391c7.422 12.383 13.012 24.374 14.853 42.163v3.48c0 7.353-4.08 14.696-10.766 14.696-7.425 0-26.36 0-51.605-3.483-3.717 0-16.334 1.934-24.127 1.934-2.23 0-4.462-.769-5.57-.769-1.117 3.477-3.342 5.026-4.46 5.026l-.742-.391c-.744-.38-1.107-1.535-1.107-2.317 0-.77.363-2.701 1.107-3.483 3.71-16.244 14.478-8.888 17.082-15.855l4.446-5.805c1.116-.769 2.98-1.16 3.717-1.16 5.573 0 7.424 11.213 9.654 11.213l.745-.38c9.278-1.543 17.447-8.893 28.958-8.893 2.222 0 5.193.39 7.813.768-10.782-8.893-30.462-22.425-32.316-38.673-7.048-4.257-10.029-9.673-10.029-15.09 0-11.989 12.99-27.071 12.99-41.383v-3.091c-14.84-1.94-20.784-1.94-23.014-4.261-1.481-.423-2.964-2.71-2.964-4.25 0-.781.739-2.356 1.483-2.71 7.422-8.123 28.958-30.943 36.006-32.531 2.6-2.704 7.062-4.604 11.9-7.31 0-.422-.394-1.194-.394-1.583 0-13.53 4.834-8.085 6.69-13.921C131.727 37.03 141.017 32 150.297 32c2.24 0 5.577.397 7.787.782 10.414 3.477 14.854 10.06 14.854 15.855 0 2.315-.742 5.031-2.225 6.963-.733 1.55-1.47 4.253-1.47 5.804 0 1.54.358 3.87.358 5.41v2.327c0 .384-1.103.773-1.845.773-.387 0-1.5.39-1.857.39h-.738c-2.6 4.29-6.686 8.89-11.52 8.89-1.495 0-3.702-1.129-5.563-1.898l-.738 4.998c5.552 1.55 13.719 6.22 21.158 9.27l48.278-46.797-1.482-5.416 5.547-1.547 1.492 6.194c9.28 10.442 15.222 32.496 17.073 49.92 3.348 1.528 5.958 4.648 5.958 7.35z"/>
</svg>