<?xml version="1.0" encoding="UTF-8"?>
<svg xmlns="http://www.w3.org/2000/svg" viewBox="0 0 300 300">
<circle fill="#32b2df" fill-opacity="0.7" cx="150" cy="150" r="145"/>
<path fill="#ffffff" d="M87.589 226.972l-16.507-4.594-22.537-19.815.078-10.538 29.65 16.433c6.887.691 9.31-.622 16.163-1.446l-5.981-14.375-12.142 1.213-18.103-9.44-19.335-24.844 2.667-10.06 24.212 21.743 17.214 2.771-4.062-15.068-25.558-11.362-12.89-25.813 5.08-8.202c7.475 8.87 9.226 13.754 15.568 21.218L77.8 141.49l3.378-15.108-20.557-12.363-8.643-28.712s-1.618-14.219 3.795-24.43c4.843-9.135 23.408-22.875 44.594-21.335-16.786 11.324-23.748 27.96-23.748 27.96 9.56-3.475 8.29-2.237 16.873-11.232 0 0-3.866 18.241-9.24 24.549-8.683 10.19-18.677 6.982-18.677 6.982l4.91 13.47 18.785 3.726s4.521-10.2 17.972-17.844c-4.165 9.185 1.584 12.027 1.584 12.027l8.278 5.243s5.435-4.595 6.268-7.834c1.008-3.923 3.162-4.25-2.077-11.972 12.11.68 19.687 7.455 19.687 7.455L160.78 79.43l4.87-12.762s-8.081 4.711-17.748-.579c-5.302-2.901-14.482-15.512-14.482-15.512 11.76 4.38 9.309 4.613 16.845 2.954 0 0-4.612-10.603-27.659-15.058 23.147-7.977 33.434-3.57 42.797.057 10.487 6.728 15.384 19.351 12.902 27.637L171.53 88.79c-4.627 6.67-9.401 11.998-13.868 18.726 2.348 6.886 5.87 13.478 5.87 13.478 5.343-2.682 9.395-5.98 9.395-5.98.645-8.729.155-8.968.146-14.018l7.277 2.707 2.484 22.117-14.315 8.404 2.684 11.147s6.245-2.31 15.217-5.059l5.74-21.056 6.712 7.829-4.32 24.864-20.282 12.169 1.904 13.476s6.669-3.376 12.162-5.016c5.279-6.904 10.219-12.27 10.219-12.27l3.285 8.331-9.14 17.031c-6.023 3.638-7.35 5.688-15.38 8.855 2.74 4.627 4.406 11.887 5.283 20.307 7.267 3.649 9.701 8.86 14.24 15.264 7.742-3.103 11.32-3.641 19.803-1.725 4.83-6.198 9.162-9.094 18.447-10.434 2.377-7.465 5.023-9.825 11.276-11.854 1.728-8.084 1.617-7.217 6.727-13.366-4.652 1.784-7.83.783-12.08-.194-10.466-2.405-19.762-15.519-19.762-15.519 26.543 10.09 6.606-8.668 28.905-17.341 20.48-7.966 33.071 13.08 21.325 28.497-7.191 33.781-45.803 80.062-91.342 79.841-34.681 0-58.944-17.92-77.134-44.528z"/>
</svg>