<?xml version="1.0" encoding="UTF-8"?>
<svg xmlns="http://www.w3.org/2000/svg" viewBox="0 0 300 300">
<circle fill="#93cc27" fill-opacity="0.7" cx="150" cy="150" r="145"/>
<path fill="#ffffff" d="M85.012 68.41c0 6.7-2.386 13.401-9.957 17.342-5.978 4.333-8.765 11.433-8.765 18.521 0 10.246 5.177 21.67 9.579 29.554 6.372.788 12.75 1.968 18.308 1.968 47.406 0 71.743-33.884 90.862-37.832-6.373-9.064-9.16-16.94-9.16-23.654 0-18.504 19.123-29.163 26.672-32.309l2.41 1.96c-7.589 5.912-11.569 15.77-11.569 23.667 0 8.653 4.78 16.157 13.162 16.157 1.992-.893 7.692-1.041 9.834-.195 6.326.39 12.489-9.887 12.489-21.73 0-4.724-1.21-13.165-2.007-16.713h2.388c8.75 4.726 11.094 14.755 11.094 23.033 0 5.104-3.82 16.753-6.608 21.084-1.273 5.205 3.65 3.282 3.098 9.75-.738 8.636 6.365 9.992 9.948 13.14.796 1.186 1.21 4.339 1.21 7.098 0 3.935-1.21 7.877-5.192 7.877-1.184 0-2.793-.39-4.383-1.186l-.416.399c0 2.362-2.772 3.546-5.16 3.546-3.986 0-9.96-1.571-11.175-1.571-12.747 10.636.814 61.47-21.096 67.771l9.985 59.329-9.777.075-16.959-40.09-2.391 39.78-9.169.276-15.636-53.777c-2.793 1.977-15.048 4.262-18.999 4.262-9.956 0-22.706-1.806-31.884-4.565-1.177 22.206-.27 34.985 2.785 54.232h-7.565l-19.54-42.57-4.89 7.674L83.987 256l-10.482-.546c-4.782-21.677-22.354-35.319-22.354-40.847 0-1.182 1.194-2.362 1.992-2.76.398-.779.813-1.965.813-3.15 0-7.092-9.957-22.853-9.957-33.491 0-1.977.777-4.736 1.573-6.313 7.173-12.996 17.13-18.512 17.13-31.912v-3.154c-1.989-9.061-4.383-16.948-4.383-24.43 0-7.486 2.394-15.766 7.573-26.011-.397-2.362-.8-4.73-.8-6.7 0-14.582 12.368-11.03 17.945-21.686.799 3.544 1.974 9.079 1.974 13.41"/>
</svg>