<?xml version="1.0" encoding="UTF-8"?>
<svg xmlns="http://www.w3.org/2000/svg" viewBox="0 0 300 300">
<circle fill="#93cc27" fill-opacity="0.7" cx="150" cy="150" r="145"/>
<path fill="#ffffff" d="M106.875 227.097l.344-.378c5.51 0 18.267-3 28.512-4.867-1.113 0-3.284.371-5.113.371-8.756 0-23.023-1.866-26.311-1.866.725 2.246 1.083 6.74 2.568 6.74m-50.454-55.04s-1.825-1.502-1.825-5.651c1.368-18.102 10.055-35.265 14.25-47.924.382-10.865 5.119-18.351 10.963-22.475-3.284 0-7.296-2.62-7.296-6.737 0-2.239 1.451-5.988 4.012-9.355 0-21.345 2.556-35.2 18.644-37.821 3.64-.376 7.308-.754 9.863-.754 11.32 0 15.72 5.242 17.542 15.73-.376 1.121-.712 2.623-.712 3.377 0 4.86 4.74 8.231 5.465 10.853 0 1.501-2.91 1.501-3.286 2.622 0 .745-.382 1.872-.382 2.617 0 2.994.758 4.872.758 4.872-.376 7.486-12.07 4.488-12.07 9.736 0 .372.382 1.117.382 1.495.713 1.5 5.845 2.622 7.646 3.365h1.823c10.976 0 29.245 11.237 44.96 11.237 6.229 0 28.524-3.365 48.615-4.86 0 .367-.367.74-.367.74-.727 0-3.651-5.996-5.845-5.996-5.478-2.987-7.673-6.365-7.673-8.981 0-1.87 1.463-4.492 2.195-6.736 0 0 2.189-1.496 6.212-1.496 2.556 0 6.932.74 11.33 2.995-5.12-6.744-6.946-11.61-6.946-15.731 0-6.732 4.388-11.976 4.388-20.597 0-3.365-.368-7.865-2.2-12.353l2.561-1.123c9.864 7.49 17.546 18.726 17.546 29.955 0 5.617-2.2 11.984-6.575 17.972 0 0 6.204-4.494 12.056-4.494 2.554 0 5.834 1.127 7.666 4.116.37 1.877.738 4.12.738 5.244 0 9.365-10.605 9.742-13.885 13.487 0 19.839-12.426 5.614-14.254 41.559l-4.39-.745c0-1.121-.363-2.622-.363-3.743 0-6.371 1.825-13.86 4.018-19.07 0-3.394-7.306-5.27-9.861-5.27-10.6 4.115-27.774 9.73-39.115 10.48-4.017.373-8.759.784-12.046.784-12.425 0-21.935-3.033-29.963-7.527 4.73 6.37 6.91 10.11 10.203 13.51-1.072 4.47-5.849 8.959-9.87 8.959l-.715-.378c1.098 3 1.829 6.365 1.829 8.62 0 5.244-2.565 10.137-4.738 14.977 3.623 1.499 6.192 7.488 6.91 10.851 20.115-13.853 44.618-28.083 55.581-29.953h1.461c5.115 0 12.782 4.492 12.782 12.729 7.681 25.836 5.853 34.456 10.963 58.817 3.66 9.732 19.013 16.11 25.943 20.97h1.106c.726 0 1.463.756 1.463.756v.372c0 1.121-2.924 2.62-5.48 2.62-1.106 0-2.556-.748-3.663-1.12-3.282 1.12-6.207 1.867-7.668 1.867-3.295 0-5.122-1.868-10.963-1.868-2.559 0-6.583.373-11.7 1.121-.36 0-1.093.367-1.462.367-2.555 0-5.112-1.115-5.112-4.486 0-1.872 1.46-5.622 3.655-9.732v-.756c0-17.964-16.445-27.741-16.445-43.837 0-2.21.734-5.243 1.458-7.867-13.88 14.608-21.95 22.505-28.133 26.618 10.587 6.368 13.14 10.861 23.734 18.353 1.116 1.501 2.21 5.617 2.21 8.982 0 5.617-2.936 12.358-11.34 12.358l-.733-.378s-16.83 3.375-39.83 3.375c-8.029 0-17.163-.374-26.676-1.501-4.754-.749-22.673-1.129-28.885-3.365-1.815 2.616-4.02 3.365-4.75 3.365h-.733c-.36 0-1.098-.749-1.098-1.496 0-1.12 1.098-3.374 1.83-4.119 2.936-10.488 14.256-5.622 17.919-11.982l5.116-5.615c-11.343-4.123-14.98-15.353-14.98-23.586 0-3.777 1.076-7.498 1.812-9.365 4.77-10.487 7.672-21.34 7.672-30.706 0-7.52-1.825-15.008-6.196-19.873 0 7.487-6.952 21.71-13.173 29.239 1.48 4.486 1.83 11.574 1.83 18.308 0 4.9-.35 10.898-.35 15.35.493 3.826.518 10.91 2.18 13.143 0 .374.382 2.624.382 4.488 0 2.624-.75 7.118-5.5 11.234 0 2.998-2.193 8.998-5.117 9.365 0 0-.727-1.872-.727-4.866 0-2.244.727-5.622 1.46-8.615-.733.748-3.289 6.37-5.484 7.49 0 1.875 0 6.736-1.456 14.606-4.39 0-3.282-8.615-4.022-8.615 0-7.866 2.19-17.975 10.229-23.966-1.462-12.725-6.207-20.595-7.308-38.563"/>
</svg>